<svg preserveAspectRatio="none" overflow="visible" style="display: block;" width="18" height="18" viewBox="0 0 18 18" fill="none" xmlns="http://www.w3.org/2000/svg">
<g id="Vertical container">
<path id="Vector" d="M9 1C9.78027 1 10.5329 1.09961 11.2578 1.29883C11.9827 1.49805 12.6579 1.78581 13.2832 2.16211C13.9085 2.53841 14.4813 2.98112 15.0015 3.49023C15.5216 3.99935 15.9671 4.5721 16.3379 5.2085C16.7087 5.84489 16.9937 6.52279 17.1929 7.24219C17.3921 7.96159 17.4945 8.71419 17.5 9.5C17.5 10.2803 17.4004 11.0329 17.2012 11.7578C17.002 12.4827 16.7142 13.1579 16.3379 13.7832C15.9616 14.4085 15.5189 14.9813 15.0098 15.5015C14.5007 16.0216 13.9279 16.4671 13.2915 16.8379C12.6551 17.2087 11.9772 17.4937 11.2578 17.6929C10.5384 17.8921 9.78581 17.9945 9 18C8.21973 18 7.46712 17.9004 6.74219 17.7012C6.01725 17.502 5.34212 17.2142 4.7168 16.8379C4.09147 16.4616 3.51872 16.0189 2.99854 15.5098C2.47835 15.0007 2.03288 14.4279 1.66211 13.7915C1.29134 13.1551 1.00635 12.4772 0.807129 11.7578C0.60791 11.0384 0.505534 10.2858 0.5 9.5C0.5 8.71973 0.599609 7.96712 0.798828 7.24219C0.998047 6.51725 1.28581 5.84212 1.66211 5.2168C2.03841 4.59147 2.48112 4.01872 2.99023 3.49854C3.49935 2.97835 4.0721 2.53288 4.7085 2.16211C5.34489 1.79134 6.02279 1.50635 6.74219 1.30713C7.46159 1.10791 8.21419 1.00553 9 1ZM14.0054 6.68604L12.8765 5.55713L7.40625 11.0273L5.12354 8.74463L3.99463 9.87354L7.40625 13.2852L14.0054 6.68604Z" fill="#F2F2F2"/>
</g>
</svg>
